# xmcd
#
# Track frame offsets: 
#        150
#        11202
#        22316
#        33398
#        36634
#        46083
#        61442
#        72972
#        82968
#        92486
#        104133
#        109342
#        119149
#        130939
#        143012
#        157415
#        170476
#        184315
#        196852
#        208736
#        222237
#        234974
#        246361
#        260162
#        271567
#
# Disc length: 3680 seconds
#
# Revision: 0
# Processed by: cddbd v1.5.2PL0 Copyright (c) Steve Scherf et al.
# Submitted via: ExactAudioCopy v0.95b3
#
DISCID=830e5e19
DTITLE=The Monkees  - Headquarters (Deluxe Edition) [CD1]  FLAC
DYEAR=1900
DGENRE=
TTITLE0=You Told Me
TTITLE1=I'll Spend My Life With You
TTITLE2=Forget That Girl
TTITLE3=Band 6
TTITLE4=You Just May Be The One
TTITLE5=Shades Of Gray
TTITLE6=I Can't Get Her Off My Mind
TTITLE7=For Pete's Sake
TTITLE8=Mr. Webster
TTITLE9=Sunny Girlfriend
TTITLE10=Zilch
TTITLE11=No Time
TTITLE12=Early Morning Blues And Greens
TTITLE13=Randy Scouse Git
TTITLE14=All Of Your Toys (Alternate Mix)
TTITLE15=The Girl I Knew Somewhere (Alternate Version)
TTITLE16=A Little Bit Me. A Little Bit You (Stereo Remix)
TTITLE17=She Hangs Out (Stereo Remix)
TTITLE18=Love To Love (Stereo Remix)
TTITLE19=You Can't Tie A Mustang Down (Stereo Remix)
TTITLE20=If I Learned To Play The Violin (Stereo Remix)
TTITLE21=99 Pounds (Stereo Remix)
TTITLE22=The Girl I Knew Somewhere (Single Version-Stereo Remix)
TTITLE23=Randy Scouse Git (Alternate Version)
TTITLE24=Tema Dei Monkees (Stereo Remix)
EXTD=
EXTT0=
EXTT1=
EXTT2=
EXTT3=
EXTT4=
EXTT5=
EXTT6=
EXTT7=
EXTT8=
EXTT9=
EXTT10=
EXTT11=
EXTT12=
EXTT13=
EXTT14=
EXTT15=
EXTT16=
EXTT17=
EXTT18=
EXTT19=
EXTT20=
EXTT21=
EXTT22=
EXTT23=
EXTT24=
PLAYORDER=
